<svg xmlns="http://www.w3.org/2000/svg" xmlns:xlink="http://www.w3.org/1999/xlink" version="1.1" x="0px" y="0px" viewBox="0 0 100 100" fill="#eeeeee" style="enable-background:new 0 0 100 100;" xml:space="preserve"><path d="M77.5,30c-4.142,0-7.5-3.358-7.5-7.5c0-2.071,0.839-3.946,2.197-5.303L60,5L5,60l12.197,12.197  C18.554,70.839,20.429,70,22.5,70c4.142,0,7.5,3.358,7.5,7.5c0,2.071-0.839,3.946-2.197,5.303L40,95l55-55L82.803,27.803  C81.446,29.161,79.571,30,77.5,30z M73.964,50.429l-3.358-3.358l-3.535,3.535l3.358,3.358L40,84.393l-3.006-3.006  c0.334-1.253,0.506-2.557,0.506-3.888c0-8.271-6.729-15-15-15c-1.331,0-2.635,0.172-3.888,0.506L15.607,60l30.429-30.429  l3.358,3.358l3.535-3.535l-3.358-3.358L60,15.607l3.006,3.006C62.672,19.865,62.5,21.169,62.5,22.5c0,8.271,6.729,15,15,15  c1.331,0,2.635-0.172,3.888-0.506L84.393,40L73.964,50.429z"/><rect x="61.035" y="41.036" transform="matrix(-0.7071 -0.7071 0.7071 -0.7071 77.6775 119.2459)" width="5" height="4.999"/><rect x="53.965" y="33.965" transform="matrix(0.7071 -0.7071 0.7071 0.7071 -9.2463 50.6067)" width="4.999" height="5"/></svg>