<svg xmlns="http://www.w3.org/2000/svg" xmlns:xlink="http://www.w3.org/1999/xlink" version="1.1" x="0px" y="0px" viewBox="0 0 100 125" style="enable-background:new 0 0 100 100;" xml:space="preserve"><g><circle cx="61.524" cy="24.309" r="2.633"/><path d="M65.481,6.021c-1.316-1.316-3.612-1.316-4.929,0l-6.422,6.422c-0.586,0.585-0.586,1.535,0,2.121   c0.647,0.647,0.647,1.7,0,2.347c-0.626,0.627-1.722,0.626-2.347,0c-0.586-0.585-1.535-0.585-2.121,0L6.021,60.552   c-1.359,1.359-1.359,3.57,0,4.929l28.498,28.498C35.177,94.637,36.053,95,36.983,95s1.806-0.363,2.464-1.021l43.641-43.641   c0.586-0.585,0.586-1.535,0-2.121c-0.647-0.647-0.647-1.7,0-2.347c0.622-0.621,1.725-0.622,2.347,0   c0.586,0.585,1.535,0.585,2.121,0l6.422-6.422c1.359-1.359,1.359-3.57,0-4.929L65.481,6.021z M91.858,37.327l-5.537,5.537   c-0.632-0.311-1.333-0.475-2.06-0.475c-1.247,0-2.417,0.483-3.295,1.361c-1.445,1.446-1.74,3.613-0.885,5.354L37.327,91.858   C37.203,91.981,37.059,92,36.983,92s-0.219-0.019-0.343-0.142L8.142,63.36c-0.189-0.189-0.189-0.497,0-0.687l42.754-42.754   c0.633,0.312,1.334,0.477,2.061,0.477c1.245,0,2.415-0.484,3.294-1.364c1.446-1.445,1.741-3.613,0.886-5.354l5.537-5.537   C62.797,8.019,62.941,8,63.017,8s0.219,0.019,0.343,0.142L91.858,36.64C92.047,36.83,92.047,37.137,91.858,37.327z"/><circle cx="68.607" cy="31.393" r="2.633"/><circle cx="75.691" cy="38.476" r="2.633"/><path d="M40.628,43.719c-0.586-0.586-1.535-0.586-2.121,0L20.263,61.963c-0.586,0.585-0.586,1.536,0,2.121   c0.293,0.293,0.677,0.439,1.061,0.439s0.768-0.146,1.061-0.439L40.628,45.84C41.214,45.255,41.214,44.305,40.628,43.719z"/><path d="M44.16,41.688c0.384,0,0.768-0.146,1.061-0.439l6.282-6.282c0.586-0.585,0.586-1.535,0-2.121   c-0.585-0.586-1.535-0.586-2.121,0l-6.282,6.282c-0.586,0.585-0.586,1.536,0,2.121C43.392,41.541,43.776,41.688,44.16,41.688z"/><path d="M59.329,40.671c-0.586-0.586-1.535-0.586-2.121,0L28.089,69.79c-0.586,0.585-0.586,1.536,0,2.121   c0.293,0.293,0.677,0.439,1.061,0.439s0.768-0.146,1.061-0.439l29.119-29.119C59.915,42.207,59.915,41.257,59.329,40.671z"/><path d="M42.431,71.101l-6.515,6.516c-0.586,0.585-0.586,1.536,0,2.121c0.293,0.293,0.677,0.439,1.061,0.439   s0.768-0.146,1.061-0.439l6.515-6.516c0.586-0.586,0.586-1.536,0-2.121C43.966,70.515,43.016,70.515,42.431,71.101z"/><path d="M65.034,48.498L47.271,66.261c-0.586,0.585-0.586,1.536,0,2.121c0.293,0.293,0.677,0.439,1.061,0.439   s0.768-0.146,1.061-0.439l17.763-17.763c0.586-0.586,0.586-1.536,0-2.121C66.569,47.912,65.62,47.912,65.034,48.498z"/></g></svg>